<svg width="348" height="106" viewBox="0 0 348 106" fill="none" xmlns="http://www.w3.org/2000/svg">
<path d="M345.042 53C345.042 58.3861 340.476 63.6712 331.815 68.5841C323.193 73.4746 310.683 77.8953 295.182 81.6142C264.187 89.05 221.343 93.6541 174 93.6541C126.657 93.6541 83.8125 89.05 52.8178 81.6142C37.3165 77.8953 24.8069 73.4746 16.1849 68.5841C7.52324 63.6712 2.95757 58.3861 2.95757 53C2.95757 47.6139 7.52324 42.3288 16.1849 37.4158C24.8069 32.5254 37.3165 28.1047 52.8178 24.3858C83.8125 16.95 126.657 12.3458 174 12.3458C221.343 12.3458 264.187 16.95 295.182 24.3858C310.683 28.1047 323.193 32.5254 331.815 37.4158C340.476 42.3288 345.042 47.6139 345.042 53Z" stroke="white"/>
<path d="M344.626 64.9113C344.249 70.2843 339.325 75.2386 330.342 79.5363C321.399 83.8144 308.611 87.3532 292.887 89.9835C261.449 95.2428 218.387 96.852 171.159 93.5551C123.932 90.2582 81.5134 82.6816 51.1138 73.1054C35.91 68.3161 23.7399 63.035 15.4806 57.556C7.1833 52.0519 2.99803 46.4617 3.37438 41.0887C3.75073 35.7157 8.67458 30.7614 17.6584 26.4637C26.6012 22.1856 39.3891 18.6468 55.1125 16.0165C86.5513 10.7572 129.613 9.14796 176.841 12.4449C224.068 15.7418 266.487 23.3184 296.886 32.8946C312.09 37.6839 324.26 42.965 332.519 48.444C340.817 53.9481 345.002 59.5383 344.626 64.9113Z" stroke="white"/>
</svg>
